<svg width="36" height="33" viewBox="0 0 36 33" fill="none" xmlns="http://www.w3.org/2000/svg">
<path d="M15.9794 0.117805C7.68263 0.968811 1.00911 7.26625 0.107284 14.9253C-0.794543 22.9248 4.07532 30.0732 11.4703 32.7964C12.0114 32.9666 12.5525 32.6262 12.5525 31.9454V29.2222C12.5525 29.2222 11.831 29.3924 10.9292 29.3924C8.40409 29.3924 7.3219 27.35 7.14153 26.1586C6.96117 25.4778 6.60044 24.9672 6.05934 24.4566C5.51825 24.2864 5.33788 24.2864 5.33788 24.1162C5.33788 23.7758 5.87898 23.7758 6.05934 23.7758C7.14154 23.7758 8.04336 24.9672 8.40409 25.4778C9.30592 26.8394 10.3881 27.1798 10.9292 27.1798C11.6507 27.1798 12.1918 27.0096 12.5525 26.8394C12.7329 25.648 13.274 24.4566 14.3562 23.7758C10.2077 22.9248 7.14153 20.7121 7.14153 16.9677C7.14153 15.0955 8.04336 13.2233 9.30592 11.8617C9.12555 11.5213 8.94519 10.6703 8.94519 9.47886C8.94519 8.79806 8.94519 7.77685 9.48629 6.75565C9.48629 6.75565 12.0114 6.75565 14.5365 8.96826C15.4383 8.62786 16.7009 8.45766 17.9635 8.45766C19.226 8.45766 20.4886 8.62786 21.5708 8.96826C23.9155 6.75565 26.621 6.75565 26.621 6.75565C26.9817 7.77685 26.9817 8.79806 26.9817 9.47886C26.9817 10.8405 26.8014 11.5213 26.621 11.8617C27.8836 13.2233 28.7854 14.9253 28.7854 16.9677C28.7854 20.7121 25.7192 22.9248 21.5708 23.7758C22.653 24.6268 23.3744 26.1586 23.3744 27.6904V32.1156C23.3744 32.6262 23.9155 33.1368 24.637 32.9666C31.3105 30.4136 36 24.2864 36 17.1379C36 6.92585 26.8014 -1.0736 15.9794 0.117805Z" fill="#2833D8"/>
</svg>
