<svg width="117" height="64" viewBox="0 0 117 64" fill="none" xmlns="http://www.w3.org/2000/svg">
<rect x="2.5" y="2.5" width="112" height="59" rx="2.5" stroke="#F6F7F2" stroke-width="5"/>
<path d="M52.512 15.104V32.048C52.512 38.032 50.96 42.608 47.856 45.776C44.784 48.912 39.904 50.48 33.216 50.48C29.376 50.48 25.824 49.92 22.56 48.8C19.328 47.68 16.448 46.224 13.92 44.432C14.528 42.448 15.024 40.544 15.408 38.72C15.792 36.896 16.08 34.896 16.272 32.72C19.568 35.376 22.608 37.216 25.392 38.24C28.176 39.264 30.832 39.776 33.36 39.776C35.984 39.776 37.856 39.184 38.976 38C40.096 36.816 40.672 34.784 40.704 31.904V28.256C40.704 23.072 40.56 18.688 40.272 15.104H52.512ZM94.8859 26.768C94.8859 29.552 94.1979 31.904 92.8219 33.824C91.4779 35.744 89.1579 37.136 85.8619 38C86.2459 38.512 86.5179 38.912 86.6779 39.2L94.4539 50H81.3979C79.9899 47.376 77.7659 43.664 74.7259 38.864H67.6699V50H56.3419C56.5979 43.792 56.7259 37.984 56.7259 32.576C56.7259 27.168 56.5979 21.36 56.3419 15.152H67.6699V15.2H77.5099C83.9739 15.2 88.4859 16.24 91.0459 18.32C93.6059 20.4 94.8859 23.216 94.8859 26.768ZM67.6699 24.416V29.888H74.1499C76.8699 29.888 78.9179 29.808 80.2939 29.648C81.7019 29.456 82.6779 29.168 83.2219 28.784C83.7659 28.4 84.0379 27.84 84.0379 27.104C84.0379 26.4 83.7819 25.856 83.2699 25.472C82.7579 25.088 81.7979 24.816 80.3899 24.656C78.9819 24.496 76.9019 24.416 74.1499 24.416H67.6699Z" fill="#F6F7F2"/>
</svg>
