<svg width="42" height="34" viewBox="0 0 42 34" fill="none" xmlns="http://www.w3.org/2000/svg">
<path d="M5.14326 33.4068C3.88393 33.4068 2.81076 32.9633 1.92376 32.0763C1.03676 31.1893 0.593262 30.1161 0.593262 28.8568V5.14375C0.593262 3.88442 1.03676 2.81125 1.92376 1.92425C2.81076 1.03725 3.88393 0.59375 5.14326 0.59375H36.8563C38.1156 0.59375 39.1888 1.03725 40.0758 1.92425C40.9628 2.81125 41.4063 3.88442 41.4063 5.14375V28.8568C41.4063 30.1161 40.9628 31.1893 40.0758 32.0763C39.1888 32.9633 38.1156 33.4068 36.8563 33.4068H5.14326ZM20.9998 19.5143L5.14326 9.51425V28.8568H36.8563V9.51425L20.9998 19.5143ZM20.9998 15.1438L36.8563 5.14375H5.14326L20.9998 15.1438ZM5.14326 9.51425V5.14375V28.8568V9.51425Z" fill="#2833D8"/>
</svg>
