<svg width="544" height="544" viewBox="0 0 544 544" fill="none" xmlns="http://www.w3.org/2000/svg">
<circle cx="272" cy="272" r="272" fill="#FBFBFB"/>
<path d="M248.782 69.7146C249.424 71.0405 249.716 72.9197 250.77 73.5931C255.489 76.6103 260.433 79.2881 265.548 82.2322C264.186 82.3053 262.703 82.3784 261.226 82.4567C252.086 82.9473 242.93 83.2188 233.816 84.0122C227.494 84.5655 221.173 85.5573 214.966 86.8989C210.456 87.875 206.119 89.6759 201.765 91.2732C201.06 91.5342 200.079 92.8497 200.241 93.3508C201.222 96.3784 199.014 96.843 197.135 97.4172C189.712 99.6774 182.227 101.745 174.835 104.114C173.222 104.631 171.928 106.108 170.456 107.1C168.66 108.311 166.828 110.467 165.022 110.452C161.127 110.42 159.796 112.733 158.277 115.447C157.797 116.303 156.753 116.992 155.813 117.415C148.746 120.599 141.84 124.065 136.16 129.463C134.182 131.342 132.397 133.482 130.825 135.716C129.061 138.232 127.067 139.459 123.872 138.932C122.907 138.775 121.722 139.955 120.641 140.524L121.278 141.97C123.309 141.636 125.334 141.302 127.646 140.921C127.563 141.516 127.458 142.262 127.406 142.602C131.013 143.27 134.584 143.933 138.379 144.637C138.212 145.018 138.097 146.031 137.622 146.25C131.989 148.86 126.315 151.371 120.62 153.84C120.103 154.065 119.049 153.584 118.835 153.871C114.941 159.091 109.731 155.38 105.185 155.766C103.697 155.897 102.053 154.226 100.481 153.376C100.607 152.979 100.732 152.587 100.863 152.191C104.25 151.006 107.565 149.257 111.052 148.787C114.419 148.338 115.755 146.036 117.018 143.833C117.619 142.784 116.46 140.728 115.896 138.264C118.198 136.849 121.341 134.923 124.483 132.997C124.488 132.673 124.499 132.344 124.504 132.021C122.52 131.869 120.537 131.65 118.553 131.587C115.238 131.478 115.51 129.212 115.447 127.918C121.429 125.981 126.947 124.217 132.444 122.379C132.965 122.207 133.78 121.492 133.717 121.184C132.814 116.773 136.813 116.261 139.083 114.565C141.401 112.832 144.089 111.6 146.611 110.138C147.044 109.888 147.775 109.653 147.827 109.319C148.719 103.932 153.574 105.158 156.873 103.968C160.282 102.736 164.306 103.19 166.875 99.7401C167.543 98.8475 169.02 98.4612 170.2 98.0645C176.892 95.8407 183.61 93.7005 190.302 91.482C191.315 91.148 192.87 90.746 193.105 90.0309C194.509 85.7087 198.106 85.1763 201.744 84.5029C203.822 84.1166 206.5 84.5499 206.74 81.1934C206.766 80.8019 207.862 80.3426 208.525 80.1755C210.107 79.784 211.72 79.5021 213.338 79.2568C220.093 78.2285 227.333 78.4059 233.461 75.8795C238.952 73.614 242.679 77.5864 247.565 77.1531C246.756 74.6162 243.055 72.5334 246.527 69.699C247.284 69.699 248.035 69.699 248.792 69.699L248.782 69.7146Z" fill="black"/>
<path d="M149.293 194.989C153.443 193.825 157.588 192.666 161.863 191.466C161.445 191.252 160.657 191.095 160.349 190.625C159.963 190.035 159.968 189.185 159.806 188.449C160.558 188.511 161.336 188.464 162.046 188.657C163.1 188.95 164.379 190.025 165.099 189.707C172.543 186.449 179.914 183.015 187.269 179.559C189.644 178.442 190.536 176.594 189.023 173.932C189.31 173.723 189.597 173.514 189.879 173.311C191.575 174.668 193.267 176.025 195.208 177.575C206.061 169.818 217.018 161.978 228.397 153.845C229.639 155.249 230.83 156.586 231.879 157.771C226.372 167.777 217.399 173.352 208.483 178.906C203.8 181.824 198.805 184.231 194.592 186.517C196.002 190.213 197.307 193.778 198.737 197.291C199.092 198.168 199.692 199.322 200.449 199.593C203.9 200.83 204.594 204.119 206.019 206.797C206.416 207.543 206.024 208.88 205.659 209.814C205.116 211.192 203.999 212.377 203.607 213.776C202.903 216.292 201.88 217.738 199.003 216.015C198.267 217.837 197.636 219.398 196.936 221.136C192.885 219.795 191.429 216.543 189.78 213.51C188.026 210.284 187.039 209.939 185.134 212.956C182.853 216.579 178.854 219.325 178.885 224.284C178.885 224.801 177.961 225.354 177.413 225.839C176.855 226.341 175.738 226.753 175.717 227.238C175.519 231.952 171.379 234.787 170.283 239.177C169.124 243.828 166.196 247.69 161.983 250.332C161.461 250.661 160.835 251.407 160.459 251.292C155.562 249.831 155.213 253.281 154.482 256.549C154.216 257.739 153.704 259.294 152.796 259.837C151.131 260.829 149.09 261.195 147.205 261.816C146.829 259.743 143.739 258.757 145.206 255.849C152.89 240.607 160.391 225.281 168.07 210.033C170.111 205.983 172.533 202.13 175.195 197.469C173.524 197.469 172.334 197.098 171.791 197.531C169.369 199.478 166.937 201.478 164.885 203.79C162.281 206.729 158.94 207.455 155.474 205.414C153.574 206.458 151.621 207.298 149.967 208.535C149.001 209.261 148.077 210.555 147.894 211.714C147.43 214.622 147.143 217.352 143.155 217.054C142.758 217.023 142.058 217.409 141.954 217.743C140.435 222.457 138.806 220.113 137.345 217.915C133.268 218.14 132.072 220.63 131.665 224.117C130.767 231.816 129.656 239.495 128.586 247.539C127.97 246.124 127.442 244.913 126.534 242.836C125.469 253.949 123.95 264.133 123.689 274.344C123.496 281.876 125.177 289.435 125.584 297.009C126.012 304.938 125.584 312.919 126.153 320.833C126.576 326.669 127.907 332.458 129.029 338.226C130.616 346.369 132.433 354.46 134.025 362.598C134.338 364.185 134.072 365.887 134.072 367.218C135.351 369.807 136.817 372.214 137.773 374.808C144.115 391.982 151.334 408.675 163.727 422.529C166.483 425.609 169.756 428.219 172.642 431.189C174.187 432.776 175.419 434.671 176.589 436.164C179.387 437.824 182.153 439.353 184.805 441.06C193.778 446.839 202.297 453.489 211.751 458.302C224.806 464.947 239.192 467.437 253.761 469.196C268.132 470.934 282.299 469.598 296.419 467.797C302.641 467.003 308.561 463.898 314.663 461.977C317.205 461.178 319.857 460.75 321.235 460.431C332.343 454.632 342.042 448.384 353.124 444.657C353.943 443.722 354.779 442.302 356.005 441.446C361.679 437.5 367.108 432.933 373.325 430.14C377.517 428.255 380.398 425.677 383.462 422.607C386.485 419.58 390.431 417.497 393.735 414.715C394.858 413.765 395.082 411.828 396.017 410.56C408.31 393.918 415.659 375.048 420.608 355.186C422.111 349.157 422.43 342.83 423.187 336.624C423.923 330.542 424.612 324.45 425.139 318.343C425.374 315.597 425.426 312.779 425.045 310.064C424.826 308.488 423.474 307.104 422.842 305.549C422.2 303.962 421.824 302.271 421.344 300.673C420.284 299.107 418.969 297.557 418.097 295.787C416.636 292.822 414.615 290.98 411.65 289.168C408.106 286.997 402.609 286.83 401.393 281.453C397.019 280.321 396.512 274.203 391.433 273.749C390.603 273.676 389.512 271.838 389.278 270.669C387.79 263.324 386.506 255.938 385.154 248.567C381.51 228.742 372.688 211.437 359.811 196.049C357.19 192.917 355.196 189.268 352.675 186.042C349.125 181.496 345.304 177.163 341.718 172.648C340.361 170.935 339.505 168.827 338.132 167.141C337.067 165.83 335.517 163.935 334.233 163.967C330.229 164.076 325.948 162.422 322.201 165.366C320.556 166.66 318.818 166.728 317.215 164.875C316.761 164.348 314.929 164.108 314.746 164.39C312.016 168.628 307.094 168.863 303.184 170.899C302.406 171.306 301.555 171.567 300.799 172C297.056 174.146 296.701 173.989 295.85 169.463C291.298 171.212 287.717 169.307 284.183 166.561C283.181 165.783 281.056 166.587 279.851 165.93C273.801 162.625 267.229 162.469 260.615 162.015C258.094 161.842 255.682 160.292 253.176 159.525C252.352 159.274 251.37 159.41 250.483 159.535C247.022 160.031 243.566 160.626 240.34 158.653C242.183 152.352 245.112 151.935 251.047 153.141C254.711 153.887 257.723 155.615 261.137 156.534C261.936 156.748 263.074 156.821 263.695 156.413C266.425 154.597 268.622 156.173 271.065 157.118C275.1 158.679 279.156 160.495 283.374 161.2C288.923 162.124 294.634 162.056 300.271 162.448C301.253 162.516 302.505 162.422 303.142 162.97C307.423 166.65 311.442 163.847 315.503 162.61C315.978 162.463 316.229 161.566 316.229 161.56C321.047 159.655 325.661 157.619 330.432 156.038C332.348 155.401 334.598 155.766 336.759 155.667C342.219 167.678 351.036 177.189 359.576 186.872C361.674 189.252 364.493 190.986 366.899 193.115C367.489 193.637 367.802 194.504 368.152 195.255C369.927 199.045 371.185 203.2 375.653 204.954C376.181 205.163 376.525 206.092 376.76 206.76C377.877 209.918 379.015 213.077 379.986 216.282C381.63 221.716 385.712 226.226 385.963 232.187C385.994 232.907 386.203 233.852 386.694 234.28C392.629 239.485 392.921 246.897 394.351 253.824C395.113 257.509 395.286 261.309 395.975 265.01C396.392 267.239 396.648 269.907 400.501 270.089C400.501 268.513 400.297 267.036 400.568 265.652C400.756 264.687 401.591 263.851 402.14 262.954C402.803 263.549 403.554 264.071 404.113 264.755C409.589 271.431 415.023 278.149 420.535 284.799C420.822 285.149 421.746 284.972 422.372 285.039C422.289 284.392 422.456 283.463 422.085 283.145C417.278 279 418.859 273.571 419.152 268.456C419.193 267.766 420.342 266.728 421.088 266.623C421.725 266.535 422.9 267.391 423.192 268.095C425.452 273.498 428.015 278.838 429.534 284.46C430.516 288.088 430.213 292.186 429.8 296.001C429.67 297.228 427.342 298.215 425.901 299.405C428.85 302.041 431.048 299.849 433.835 296.795C434.185 303.816 434.686 309.787 434.712 315.764C434.733 320.53 434.331 325.317 433.799 330.057C433.548 332.27 432.546 334.395 431.68 337.229C434.598 342.219 430.97 348.024 430.944 354.288C437.975 347.152 444.709 340.319 451.677 333.251C448.384 329.973 451.938 326.57 452.413 323.036C452.862 319.695 453.969 316.443 454.627 313.123C455.013 311.176 455.19 309.177 455.284 307.188C455.394 304.954 455.718 302.615 455.222 300.491C453.724 294.065 452.152 287.639 446.374 283.296C442.553 280.425 440.428 281.067 438.471 285.421C437.056 288.563 437.985 292.958 433.157 295.062C433.475 290.729 429.853 287.232 432.316 282.753C432.807 281.86 432.008 279.13 431.257 278.88C428.657 278.008 428.997 276.254 429.101 274.365C429.362 269.604 429.466 264.828 429.994 260.098C430.098 259.169 431.779 258.381 432.781 257.587C433.658 256.893 435.229 256.397 435.37 255.614C435.642 254.127 435.146 252.488 434.89 250.922C434.545 248.823 434.227 246.714 433.715 244.658C433.047 241.943 433.888 240.91 436.743 240.45C437.672 240.299 438.742 237.485 438.737 235.893C438.727 233.205 436.211 230.543 438.815 227.786C438.993 227.599 438.481 226.701 438.22 226.168C436.722 223.078 434.838 220.118 433.768 216.887C432.003 211.542 430.688 206.045 429.336 200.575C428.903 198.816 428.939 196.942 428.777 195.12C428.725 194.53 428.835 193.903 428.668 193.35C426.141 185.108 423.583 176.876 421.026 168.644C420.885 168.19 420.775 167.71 420.53 167.313C418.65 164.296 415.884 161.519 415.043 158.246C413.681 152.958 411.029 148.839 407.031 145.467C405.888 144.501 404.014 144.423 402.787 143.52C400.166 141.589 397.656 139.48 395.275 137.256C393.025 135.158 390.927 133.216 387.946 136.306C385.775 133.325 383.776 130.543 381.724 127.792C381.286 127.202 380.722 126.388 380.116 126.294C375.21 125.537 373.785 122.097 373.257 117.832C373.059 116.214 372.908 114.523 372.307 113.04C371.79 111.767 370.814 110.06 369.744 109.804C368.768 109.574 367.348 110.979 366.21 111.782C365.746 112.111 365.5 112.748 365.302 113.035C360.16 109.861 355.113 106.881 350.263 103.618C349.433 103.06 349.418 101.295 348.979 99.9435C347.846 98.7272 346.609 97.0359 345.001 95.8458C344.213 95.2611 342.699 95.3708 341.588 95.5796C340.408 95.7988 339.275 97.0203 338.205 96.9211C329.441 96.1277 320.692 95.1254 311.802 94.1754V89.112C309.934 89.8219 308.477 90.4796 306.958 90.9181C305.606 91.3044 303.45 92.1396 302.918 91.5758C299.065 87.5147 293.585 87.4833 288.944 85.4632C288.265 85.1657 287.571 84.8994 286.913 83.7563C289.737 83.9546 293.188 83.2134 295.244 84.5758C298.319 86.6116 300.804 83.9651 303.461 84.8629C306.264 85.8077 309.109 86.6481 311.823 86.5803C313.958 86.1992 316.177 85.2492 318.207 85.5572C323.239 86.3141 328.183 87.6608 333.168 88.7361C334.019 88.9188 334.937 88.8249 335.757 89.0702C339.348 90.1455 342.913 91.2939 347.465 92.7242C351.845 90.6467 358.49 93.0009 365.339 100.314C367.547 98.0799 369.682 95.7623 372.015 93.6586C372.688 93.0479 373.957 92.8025 374.881 92.9226C375.236 92.9696 375.669 94.5199 375.612 95.3499C375.121 102.287 375.309 108.614 379.088 115.306C381.641 119.826 385.336 123.246 387.696 127.677C388.26 128.737 388.333 130.058 388.646 131.305C400.48 133.122 409.724 140.247 418.927 147.263C421.965 149.575 426.293 150.755 427.394 155.333C427.54 155.928 429.346 156.126 430.385 156.507C434.237 157.932 434.848 160.49 431.648 163.941C430.02 162.563 428.422 161.054 426.663 159.759C425.212 158.689 423.578 157.87 421.981 156.909C422.487 160.788 422.743 163.748 423.348 166.634C423.469 167.198 425.118 168.023 425.729 167.803C428.903 166.655 429.811 167.177 430.364 170.915C431.424 178.082 433.574 185.097 435.334 192.155C435.986 194.78 436.821 197.354 437.792 200.726C438.017 199.285 437.891 198.393 438.278 197.975C438.935 197.265 440.011 196.331 440.736 196.461C441.457 196.592 442.443 197.897 442.48 198.722C442.835 206.306 443.111 213.901 443.164 221.496C443.174 223.146 442.015 224.78 441.733 226.471C441.566 227.484 441.702 228.888 442.297 229.629C445.069 233.059 447.277 236.097 444.39 240.941C443.044 243.206 444.072 246.793 443.67 249.731C442.506 258.287 441.164 266.816 439.875 275.497C441.003 275.764 441.618 276.108 442.146 275.998C448.895 274.589 452.873 278.457 457.534 282.649C463.626 288.124 464.419 295.401 464.962 302.041C465.808 312.366 465.02 323.005 459.419 332.453C456.772 336.916 454.491 341.64 451.479 345.832C449.386 348.75 446.275 350.921 443.701 353.515C440.423 356.82 436.785 359.085 431.868 358.897C428.511 358.767 427.958 361.627 427.352 364.039C423.719 378.561 416.834 391.71 410.351 405.053C406.216 413.572 399.096 419.193 391.992 424.685C382.058 432.358 371.634 439.395 361.335 446.578C360.108 447.434 358.333 447.507 356.271 448.102C350.644 454.496 342.501 458.688 334.107 461.58C311.239 469.467 287.968 475.204 263.314 474.097C236.232 472.876 210.879 465.876 187.65 452.34C174.991 444.965 163.727 435.083 154.565 423.495C142.627 408.393 133.748 391.397 128.7 372.809C126.759 365.662 123.486 358.897 122.676 351.396C121.852 343.78 120.432 336.232 119.471 328.626C119.247 326.846 119.832 324.967 120.03 323.13C120.124 322.289 120.354 321.428 120.239 320.614C119.868 317.952 118.85 315.263 119.043 312.658C119.289 309.37 117.535 308.237 115.092 307.334C113.641 306.802 111.266 306.802 110.832 305.857C109.345 302.626 108.28 299.139 107.58 295.641C107.304 294.263 108.426 292.608 108.917 291.048C108.201 289.633 107.429 288.114 106.594 286.465C105.341 286.793 104.052 287.127 102.423 287.55C101.896 285.89 101.421 284.387 100.763 282.32C100.23 284.601 100.001 286.485 99.3013 288.177C98.962 288.991 97.7457 289.445 96.9262 290.066C96.5817 289.226 95.8248 288.297 95.9762 287.561C96.4042 285.546 97.2133 283.614 97.3282 281.897C96.4669 277.147 95.6055 272.391 94.6503 267.124C93.7368 268.153 92.8233 269.192 91.2834 270.93C90.9806 269.092 90.5526 267.887 90.6309 266.717C91.0485 260.584 91.7219 254.471 92.0351 248.338C92.1812 245.477 91.868 242.564 91.4765 239.719C91.0485 236.603 90.2029 233.685 85.9746 233.983C85.3691 234.024 84.393 233.163 84.1007 232.495C82.258 228.298 80.3684 224.106 78.8754 219.779C77.8419 216.778 82.0231 213.244 86.1991 213.348C86.9195 213.364 87.6346 213.609 89.4877 213.964C88.4855 212.528 88.1253 211.375 87.5093 211.223C83.0723 210.122 83.0567 210.185 81.6629 205.779C83.135 205.017 84.6592 204.234 86.1521 203.461C85.2908 198.836 88.5272 195.981 96.6495 194.707C95.6369 193.804 95.0992 192.98 94.3841 192.771C93.4654 192.505 92.2073 193.084 91.4452 192.661C90.255 192.003 88.663 190.892 88.5533 189.832C88.4542 188.908 90.0045 187.514 91.1372 186.856C91.9724 186.366 93.3296 186.856 94.4049 186.648C95.0157 186.533 95.6682 185.985 96.0179 185.447C96.1484 185.244 95.4907 184.518 95.1723 184.043C95.1149 183.954 94.8956 183.975 94.8434 183.886C93.7211 182.127 92.6093 180.363 91.4974 178.593C93.5489 178.123 95.5951 177.638 97.657 177.205C98.1059 177.111 98.5966 177.189 99.9747 177.189C98.5862 174.678 97.5735 172.59 96.3259 170.654C94.5355 167.866 95.0627 166.53 98.3513 166.201C99.3326 166.102 100.345 166.316 101.342 166.331C103.018 166.358 104.699 166.337 106.38 166.337C106.453 166.023 106.521 165.71 106.594 165.397C107.309 166.347 108.024 167.297 109.292 168.973C115.447 165.611 121.523 162.119 127.761 158.945C130.788 157.405 134.119 156.46 137.308 155.249C137.658 155.119 138.175 155.098 138.336 154.847C142.539 148.443 150.139 146.308 155.39 141.223C156.544 140.106 157.802 139.099 159.629 138.65C157.958 144.021 154.174 147.618 149.753 150.572C145.467 153.433 141.004 156.032 135.852 159.222C137.428 159.723 138.336 160.146 138.42 160.02C140.858 156.273 145.159 156.507 148.698 155.197C153.756 153.323 158.872 151.585 164.019 149.972C164.927 149.69 166.112 150.296 167.167 150.494C166.634 151.475 166.347 152.973 165.533 153.349C160.876 155.505 156.058 157.317 151.366 159.399C148.406 160.715 145.498 162.176 142.711 163.826C141.531 164.525 140.727 165.862 139.751 166.911L140.226 167.887C144.747 166.895 149.272 165.903 153.939 164.875C155.301 167.636 153.579 168.529 151.527 169.114C145.378 170.868 139.172 172.455 133.059 174.339C130.486 175.132 128.09 176.516 125.61 177.628C123.59 178.536 121.486 179.287 119.586 180.399C118.443 181.068 117.624 182.279 116.23 183.683C121.152 185.431 124.963 187.123 128.951 188.099C132.547 188.981 136.374 189.634 140.038 189.393C144.773 189.085 146.939 192.04 149.356 195.026C143.661 195.887 138.049 196.675 132.553 193.752C131.075 192.969 129.034 193.637 129.4 196.482C132.61 196.785 135.721 197.077 138.832 197.37C138.822 197.824 138.806 198.278 138.796 198.732C134.855 198.732 130.914 198.732 126.978 198.732C123.673 198.732 120.364 198.732 117.122 198.732C117.43 196.743 117.451 196.644 120.609 197.176C123.517 197.667 125.897 197.615 126.012 194.311C119.936 191.205 114.095 188.219 108.196 185.202C105.727 186.298 102.579 187.582 99.5466 189.101C98.6801 189.534 97.7144 190.563 97.5422 191.461C96.8322 195.219 96.3363 199.019 95.9031 202.819C95.5168 206.186 94.7129 209.209 90.7509 210.587C93.2513 213.379 93.7263 215.953 91.6958 219.053C90.7927 220.437 91.0902 222.608 90.8501 224.362C95.7569 225.636 97.1715 227.546 97.2342 232.422C97.2655 234.807 97.1246 237.229 97.49 239.563C97.6831 240.779 98.8472 241.823 99.5049 242.987C100.93 245.519 102.861 247.925 103.592 250.65C104.735 254.925 100.972 260.224 106.343 263.742C106.787 264.034 106.667 265.156 106.855 265.882C107.502 268.377 108.17 270.862 108.828 273.357C109.188 273.305 109.548 273.253 109.908 273.201V264.217C110.321 264.175 110.728 264.133 111.14 264.092C112.012 268.857 112.889 273.618 113.735 278.222C113.98 277.345 114.575 275.962 114.726 274.532C115.374 268.539 115.718 262.51 116.48 256.533C118.375 241.635 118.741 226.403 125.255 211.886C128.533 212.142 131.488 212.68 134.395 212.492C136.416 212.361 139.266 211.803 140.163 210.414C141.792 207.909 143.254 206.343 146.37 206.75C146.855 206.813 147.445 206.082 148.093 205.648C145.253 202.809 143.029 204.86 140.759 205.972C136.697 207.956 134.917 207.596 132.647 203.785C135.325 202.929 137.903 202.156 140.445 201.279C142.199 200.674 145.425 199.786 145.378 199.264C145.086 196.08 148.244 196.545 149.278 194.963L149.293 194.989ZM100.11 183.098C102.559 182.957 106.568 183.662 107.194 182.519C109.214 178.828 112.283 178.029 116.125 177.471C111.563 176.333 107.418 175.299 104.318 174.527C102.726 177.768 101.65 179.956 100.105 183.098H100.11ZM115.64 172.444C122.019 172.575 127.776 171.108 132.443 166.603C126.967 168.968 120.228 167.642 115.64 172.444Z" fill="black"/>
<path d="M171.948 358.981C173.284 359.915 174.135 360.51 175.127 361.205C176.014 359.915 176.902 358.631 177.962 357.091C188.146 362.708 198.534 363.079 209.798 361.372C226.205 358.887 242.768 357.3 258.71 352.519C273.012 348.233 287.446 344.208 300.72 337.015C304.787 334.812 309.344 333.528 313.525 331.519C320.661 328.089 327.692 324.44 334.744 320.844C337.088 319.648 339.291 318.14 341.708 317.127C345.054 315.723 347.585 317.012 347.794 320.651C348.374 330.746 350.613 340.842 348.269 350.989C348.128 351.6 348.087 352.252 347.846 352.827C341.123 368.889 336.075 386.047 323.887 399.003C311.249 412.439 296.367 423.004 277.256 425.296C259.837 427.379 242.945 425.265 227.88 415.759C220.51 411.108 213.823 405.303 209.172 397.473C206.374 392.76 202.062 388.902 199.525 384.084C197.881 380.957 195.595 379.313 193.021 377.46C191.518 376.379 190.234 374.892 189.117 373.388C187.149 370.736 184.471 369.666 181.485 368.419C177.956 366.947 175.064 363.924 171.979 361.461C171.661 361.205 171.938 360.208 171.938 358.976L171.948 358.981ZM205.727 368.821C205.419 369.384 205.116 369.953 204.808 370.517C206.948 372.208 208.874 374.312 211.26 375.518C221.512 380.712 232.547 381.719 243.53 379.224C253.704 376.912 263.559 373.216 273.597 370.282C279.872 368.45 286.177 366.701 292.551 365.261C300.981 363.35 308.942 360.364 316.135 355.588C320.034 352.999 323.558 349.856 327.41 347.194C330.913 344.772 334.65 342.7 338.247 340.413C341.88 338.106 344.866 335.366 344.114 330.459C343.921 329.18 343.686 327.906 343.472 326.627C342.303 326.888 341.055 326.967 339.98 327.437C335.517 329.384 331.127 331.492 326.674 333.455C323.897 334.682 321 335.637 318.254 336.921C299.426 345.686 280.185 353.296 259.895 357.968C257.848 358.438 255.604 358.031 253.036 358.031C249.423 362.092 238.289 364.754 233.956 361.461C232.281 362.724 230.047 363.59 229.269 365.172C227.661 368.44 224.962 368.241 222.718 367.385C216.569 365.036 211.317 367.855 205.732 368.831L205.727 368.821ZM325.406 386.026C324.351 385.911 323.86 385.807 323.37 385.812C305.705 386.052 289.283 391.074 273.488 398.648C270.93 399.874 268.085 400.517 265.026 401.54C266.613 403.805 263.862 404.64 262.285 406.133C260.37 407.945 258.323 409.667 256.71 411.729C255.651 413.086 255.254 414.965 254.56 416.615C256.131 417.189 257.734 418.322 259.268 418.238C267.881 417.763 276.51 417.215 285.076 416.239C289.591 415.722 294.206 415.232 297.959 411.766C300.538 409.385 303.612 407.125 306.875 405.998C311.494 404.4 314.637 401.681 316.824 397.51C317.106 396.972 317.576 396.367 318.103 396.158C322.556 394.404 323.213 390.035 325.395 386.026H325.406Z" fill="black"/>
<path d="M332.03 235.476C329.812 235.476 327.718 235.423 325.631 235.512C325.119 235.533 324.2 235.992 324.2 236.259C324.19 237.01 324.326 238.007 324.811 238.493C330.261 243.911 332.662 250.958 335.413 257.843C337.188 262.275 336.264 266.044 333.398 269.312C327.343 244.047 310.597 236.593 287.41 240.873C285.635 242.502 284.252 243.932 282.706 245.154C277.716 249.105 272.313 252.618 267.782 257.034C265.533 259.227 264.838 263.022 262.985 267.088C261.649 266.649 259.248 266.556 258.005 265.313C255.495 262.808 255.244 259.905 257.88 256.778C260.678 253.459 262.416 249.152 265.496 246.192C269.777 242.079 275.122 239.093 279.554 235.115C283.87 231.242 289.2 231.153 294.258 230.355C299.551 229.514 304.996 229.629 310.988 229.29C310.232 228.251 309.699 227.207 308.89 226.476C304.275 222.29 299.698 218.057 294.911 214.074C286.564 207.131 277.366 201.572 267.198 197.641C264.588 196.634 262.662 196.775 261.378 199.526C261.064 200.199 260.501 200.747 260.078 201.373C257.513 205.205 254.094 206.472 249.82 205.174C249.278 205.007 248.38 204.495 248.401 204.192C248.662 200.267 246.119 196.08 248.521 192.51C250.149 190.088 252.843 188.198 255.395 186.616C259.055 184.351 262.938 182.399 266.89 180.687C268.315 180.071 270.356 180.091 271.87 180.577C283.239 184.236 292.254 191.722 301.352 199.061C305.654 202.527 310.158 205.774 314.214 209.506C320.196 215.013 325.74 220.995 331.707 226.513C334.98 229.541 332.051 232.218 332.02 235.481L332.03 235.476Z" fill="black"/>
<path d="M347.476 296.732C341.181 297.066 335.183 300.814 329.373 298.909C326.748 299.922 324.607 301.169 322.321 301.556C312.419 303.231 302.48 304.719 292.53 306.107C290.505 306.389 288.381 305.94 286.679 305.846C280.107 311.364 271.583 310.033 264.515 313.222C264.238 312.82 263.967 312.413 263.69 312.011C265.011 310.722 266.258 309.339 267.688 308.18C268.545 307.485 269.672 307.11 270.711 306.661C274.135 305.183 275.137 303.403 274.083 299.18C272.402 292.447 272.157 285.332 271.551 278.358C271.332 275.826 271.755 272.887 274.913 272.418C277.956 271.963 281.401 271.875 283.249 275.174C286.882 281.657 289.529 288.506 290.239 295.991C290.307 296.711 290.359 297.437 290.463 298.737C309.469 293.997 328.46 294.712 347.476 296.738V296.732Z" fill="black"/>
<path d="M153.767 304.296C149.095 303.482 148.761 300.157 148.834 297.359C148.97 292.175 149.179 286.861 150.416 281.866C153.01 271.4 156.179 261.012 166.4 255.014C167.652 254.278 169.239 254.106 171.437 253.448C174.444 249.695 178.682 246.599 184.91 247.951C185.15 248.004 185.515 248.061 185.64 247.936C189.66 243.875 194.796 246.438 199.359 245.879C201.619 245.602 204.192 247.539 206.573 248.593C210.415 250.29 211.579 253.913 213.698 257.18C216.621 261.69 217.227 266.018 217.321 270.789C217.352 272.277 216.538 273.942 215.666 275.221C215.139 275.998 213.656 276.661 212.779 276.484C212.095 276.348 211.427 274.907 211.187 273.937C210.253 270.11 209.746 266.164 208.593 262.416C207.408 258.558 204.464 256.658 200.335 256.45C194.979 256.178 189.639 255.499 184.288 255.432C182.764 255.411 181.277 257.055 179.679 257.697C173.885 260.03 168.018 262.74 164.051 267.391C161.039 270.919 159.613 275.983 158.1 280.571C155.615 288.077 153.689 295.756 153.778 304.296H153.767Z" fill="black"/>
<path d="M204.745 303.388C203.905 306.572 202.882 311.166 201.425 315.618C200.961 317.033 199.045 319.262 198.335 319.074C195.725 318.385 192.922 319.445 190.38 316.892C182.018 308.488 183.714 298.429 184.915 288.433C185.489 283.63 188.506 280.55 191.706 280.53C197.98 280.493 202.683 284.142 203.456 289.879C203.988 293.83 204.229 297.818 204.751 303.383L204.745 303.388Z" fill="black"/>
<path d="M295.276 441.352C300.381 439.405 305.095 437.537 309.887 435.898C310.305 435.757 311.871 437.197 311.829 437.834C311.714 439.656 311.448 441.692 310.519 443.195C307.903 447.402 299.854 448.64 296.915 446.442C293.736 447.147 291.382 448.112 289.038 448.092C285.17 448.06 281.24 447.684 277.492 446.807C276.448 446.562 275.43 444.051 275.362 442.537C275.315 441.446 276.834 439.338 277.695 439.311C282.581 439.171 287.493 439.405 292.369 439.797C293.585 439.896 294.712 441.034 295.276 441.352Z" fill="black"/>
<path d="M354.92 310.049C355.254 309.547 355.807 307.846 356.543 307.762C358.13 307.585 360.657 307.668 361.314 308.644C364.457 313.306 367.354 318.186 369.729 323.271C370.251 324.383 368.638 327.055 367.317 328.245C366.602 328.887 363.564 328.423 363.058 327.572C360.187 322.738 357.749 317.649 355.217 312.622C354.951 312.1 355.061 311.39 354.915 310.049H354.92Z" fill="black"/>
<path d="M158.862 120.479C175.863 112.419 191.91 102.089 211.511 98.9727C194.546 108.551 177.132 115.577 158.862 120.479Z" fill="black"/>
<path d="M110.587 161.153C110.691 163.273 111.167 165.945 106.865 164.16C106.119 163.852 104.918 164.755 104.073 164.536C102.861 164.223 101.567 163.591 100.742 162.693C100.283 162.197 100.471 160.172 100.773 160.073C101.938 159.692 103.295 159.613 104.527 159.78C106.338 160.026 108.108 160.574 110.587 161.153Z" fill="black"/>
</svg>
